<svg width="467" height="273" viewBox="0 0 467 273" fill="none" xmlns="http://www.w3.org/2000/svg">
<path d="M83.3091 238.827C67.0497 238.827 53.3187 247.467 49.0789 259.316H117.539C113.3 247.467 99.5685 238.827 83.3091 238.827Z" fill="#6DB344"/>
<path d="M176.703 238.827C160.444 238.827 146.713 247.467 142.473 259.316H210.934C206.694 247.467 193.002 238.827 176.703 238.827Z" fill="#6DB344"/>
<path d="M132.204 230.033C108.982 230.033 89.3773 242.406 83.3092 259.285H181.099C175.031 242.406 155.465 230.033 132.204 230.033Z" fill="#6DB344"/>
<path d="M283.32 209.617C222.256 209.617 170.766 229.683 154.809 257.09H411.769C395.874 229.683 344.384 209.617 283.32 209.617Z" fill="#96C331"/>
<path d="M356.028 272.683H54.2558C48.6934 272.683 44.1571 269.085 44.1571 264.672C44.1571 260.26 48.6934 256.661 54.2558 256.661H355.974C361.536 256.661 366.073 260.26 366.073 264.672C366.127 269.128 361.59 272.683 356.028 272.683Z" fill="#2A753C"/>
<path d="M15.0681 46.063C20.6703 46.063 25.7123 49.0508 28.3267 53.7194C29.8206 51.105 32.6217 49.4243 35.9831 49.4243C37.2903 49.4243 38.5975 49.7978 39.9046 50.358C41.3986 43.2619 47.561 38.0332 55.0306 38.0332C56.5246 38.0332 58.0185 38.2199 59.3256 38.5934C62.1268 31.1238 69.2229 25.895 77.4395 25.895C88.0837 25.895 96.6738 34.4851 96.6738 45.1293C96.6738 46.2497 96.487 47.3702 96.3003 48.4906C97.234 48.3039 98.1677 48.1171 99.2881 48.1171C103.21 48.1171 106.571 49.9846 108.625 52.9724C109.372 52.7857 110.119 52.7857 110.866 52.7857C111.426 52.7857 111.986 52.7857 112.547 52.9724C114.227 50.7315 116.842 49.4243 119.643 49.4243C123.751 49.4243 127.112 52.2254 128.233 55.9603H110.679H78.3732H56.3378H46.814H0.315615C2.92998 50.1713 8.53219 46.063 15.0681 46.063Z" fill="#3C8632"/>
<path d="M421.037 8.59229C422.806 3.82338 427.432 0.280762 432.875 0.280762C439.951 0.280762 445.53 6.00346 445.53 12.9524C445.53 13.6337 445.53 14.4512 445.394 15.1325C446.074 14.9963 446.619 14.86 447.299 14.86C449.884 14.86 452.062 16.0863 453.558 17.9939C453.967 17.8576 454.511 17.8576 454.919 17.8576C455.327 17.8576 455.736 17.8576 456.008 17.9939C457.096 16.4951 458.729 15.6775 460.634 15.6775C463.356 15.6775 465.533 17.4488 466.213 20.0377H454.647H433.419H418.995H412.736H407.975C405.303 12.009 412.057 4.3684 421.037 8.59229Z" fill="#3C8632"/>
<path d="M144.3 168.012C144.3 168.012 150.462 165.752 151.875 166.656C153.289 167.504 147.636 170.328 143.791 169.537L144.3 168.012Z" fill="white"/>
<path d="M144.752 167.391C144.978 168.464 145.092 169.537 145.205 170.611C123.383 171.119 125.249 170.78 109.137 157.278C106.65 155.244 107.158 154.566 109.024 153.153C108.741 152.645 108.741 152.645 109.024 153.153C110.833 151.741 111.342 152.588 113.434 154.453C127.284 166.939 125.079 167.617 144.752 167.391Z" fill="#00183A"/>
<path d="M107.893 259.312C107.837 259.312 107.724 259.312 107.667 259.312C106.989 259.199 106.593 258.521 106.706 257.899L108.458 249.368C108.571 248.69 109.25 248.295 109.872 248.408C110.55 248.521 110.946 249.199 110.833 249.82L109.08 258.351C108.967 258.916 108.458 259.312 107.893 259.312Z" fill="white"/>
<path d="M106.424 257.673C106.424 257.673 105.689 260.78 106.424 260.893C107.158 261.006 117.956 261.289 118.013 260.78C118.239 259.085 109.42 257.504 108.515 257.673C107.611 257.842 106.48 257.221 106.424 257.673Z" fill="#003057"/>
<path d="M111.002 254.737C109.646 254.793 108.345 254.793 106.989 254.68C110.267 233.833 107.724 203.606 99.4698 183.832C102.749 182.589 106.028 181.347 109.306 180.217C114.733 200.951 112.924 233.833 111.002 254.737Z" fill="#00183A"/>
<path d="M97.2653 259.312C97.2088 259.312 97.0957 259.312 97.0392 259.312C96.3608 259.199 95.9651 258.521 96.0781 257.899L97.8306 249.368C97.9437 248.69 98.6221 248.295 99.2439 248.408C99.9223 248.521 100.318 249.199 100.205 249.82L98.4525 258.351C98.3394 258.916 97.8306 259.312 97.2653 259.312Z" fill="white"/>
<path d="M95.7389 257.673C95.7389 257.673 95.0039 260.78 95.7389 260.893C96.4738 261.006 107.271 261.289 107.328 260.78C107.554 259.085 98.7351 257.504 97.8306 257.673C96.9826 257.842 95.8519 257.221 95.7389 257.673Z" fill="#003057"/>
<path d="M99.9221 254.848C98.5653 254.735 97.2651 254.622 95.9083 254.396C100.996 235.356 101.844 207.559 96.8694 187.22C96.304 184.904 97.152 180.441 99.4698 179.876C101.448 179.367 103.936 181.006 105.914 180.497C109.193 201.684 103.992 234.226 99.9221 254.848Z" fill="#00183A"/>
<path d="M111.229 189.595C109.363 188.522 105.01 188.748 103.088 187.957C100.262 186.77 98.792 186.714 95.8523 186.262C97.3221 177.109 99.5834 167.617 100.714 158.578C100.94 156.657 101.053 155.527 101.732 154.171C102.58 152.363 103.823 151.29 105.237 150.838C106.989 150.273 108.968 150.781 110.777 152.194C111.059 152.363 111.286 152.589 111.568 152.928C112.586 154.115 113.321 156.092 112.812 159.538C111.512 168.069 111.399 180.442 111.229 189.595Z" fill="#00183A"/>
<path d="M111.511 152.928L110.211 158.578L108.572 165.697L106.932 158.465L105.236 150.838C106.989 150.273 108.967 150.781 110.776 152.194C111.002 152.42 111.285 152.646 111.511 152.928Z" fill="#F7F7EA"/>
<path d="M106.762 145.414C108.119 148.804 111.568 150.668 113.659 149.821C115.751 148.973 115.638 145.809 114.281 142.419C112.924 139.03 110.55 137.956 108.458 138.747C106.423 139.594 105.406 142.024 106.762 145.414Z" fill="white"/>
<path d="M105.688 147.166C106.028 147.957 107.215 148.635 107.78 148.409C108.346 148.183 108.232 147.505 107.95 146.714C107.667 145.923 106.876 145.358 106.31 145.584C105.689 145.81 105.349 146.375 105.688 147.166Z" fill="white"/>
<path d="M107.271 145.018L111.115 145.414C111.059 145.922 110.494 150.894 109.928 152.702C109.702 153.267 108.684 153.323 107.723 152.871C106.875 152.476 106.31 151.798 106.367 151.233C106.706 150.159 107.102 146.826 107.271 145.018Z" fill="white"/>
<path d="M108.402 146.827C109.08 146.318 109.476 146.996 110.663 148.013C111.85 149.03 114.281 149.313 115.073 146.262C115.581 144.285 116.034 147.787 116.034 147.787C115.921 149.482 115.299 150.33 114.055 150.838C112.359 151.516 109.985 150.895 108.119 149.2C107.893 148.239 107.893 147.166 108.402 146.827Z" fill="#00183A"/>
<path d="M115.186 146.091C115.186 146.091 115.13 146.091 115.073 146.148C114.338 146.374 111.059 147.447 110.494 148.634C109.872 149.933 112.19 148.408 112.981 147.673C113.773 146.882 114.451 147.165 115.13 147.108C115.695 146.995 116.147 146.261 115.186 146.091Z" fill="#00183A"/>
<path d="M105.406 143.437C105.406 143.437 105.236 140.951 106.649 139.482C108.063 138.013 111.398 136.827 113.32 139.595C113.32 139.595 114.507 141.686 111.907 142.872C109.306 144.058 109.306 142.477 108.402 144.284C107.497 146.036 105.971 145.414 105.801 145.81L105.406 143.437Z" fill="#00183A"/>
<path d="M110.211 158.578L108.572 165.697L106.932 158.465L107.893 154.115L109.25 154.397L110.211 158.578Z" fill="#3C8632"/>
<path d="M188.208 134.031L182.715 129.588L130.392 194.187L135.885 198.631L188.208 134.031Z" fill="#00183A"/>
<path d="M174.189 154.689L165.4 147.579L127.447 194.437L136.235 201.547L174.189 154.689Z" fill="#2A753C"/>
<circle opacity="0.5" cx="211.932" cy="99.0605" r="44.4687" fill="white"/>
<path d="M239.955 64.4546C220.848 48.9743 192.808 51.9686 177.318 71.0648C161.828 90.1609 164.824 118.184 183.932 133.664C203.04 149.144 231.08 146.15 246.57 127.054C262.003 107.958 259.063 79.9349 239.955 64.4546ZM186.476 130.557C169.064 116.489 166.407 91.0084 180.484 73.6072C194.56 56.206 220.056 53.5506 237.468 67.6184C254.88 81.6863 257.537 107.167 243.46 124.568C229.327 141.913 203.831 144.624 186.476 130.557Z" fill="#00183A"/>
<path d="M126.436 185.527C126.436 185.527 132.881 186.601 133.729 188.069C134.52 189.538 128.245 189.143 125.249 186.601L126.436 185.527Z" fill="white"/>
<path d="M127.114 185.245C126.775 186.319 126.379 187.279 125.927 188.24C106.706 177.901 108.458 178.522 101.166 158.861C100.035 155.867 100.827 155.528 103.088 155.189C103.088 154.624 103.088 154.624 103.088 155.189C105.349 154.85 105.349 155.81 106.254 158.522C112.19 176.206 109.928 175.754 127.114 185.245Z" fill="#00183A"/>
</svg>
